<?xml version="1.0" encoding="utf-8"?>
<!-- Generator: Adobe Illustrator 21.0.0, SVG Export Plug-In . SVG Version: 6.00 Build 0)  -->
<svg version="1.1" xmlns="http://www.w3.org/2000/svg" xmlns:xlink="http://www.w3.org/1999/xlink" x="0px" y="0px"
	 viewBox="0 0 1366 768" style="enable-background:new 0 0 1366 768;" xml:space="preserve">
<style type="text/css">
	.st0{fill:#00466E;stroke:#231F20;stroke-miterlimit:10;}
	.st1{fill:#FFFFFF;}
	.st2{fill:none;}
	.st3{font-family:'AGaramondPro-Bold';}
	.st4{font-size:41px;}
</style>
<g id="Layer_1">
	<circle id="XMLID_16_" class="st0" cx="184" cy="171.3" r="155.6"/>
	<g id="XMLID_288_">
		<g>
			<g>
				<g>
					<g>
						<g>
							<g>
								<path class="st1" d="M45.5,227.3c-1.4,1.5-0.8,3.3,0.8,4.2c1.3,0.8,3.2-0.1,4-0.7c0.7-0.6,0.6-1.5,0.1-1.8
									c-0.5-0.3-1.4-0.1-1.9,0.3c-0.5,0.5,0,1.1-0.3,1c-0.3-0.2-0.3-0.8,0-1.1c0.7-0.7,1.6-0.8,2.4-0.4c0.7,0.4,0.9,1.2,0,2.2
									c-1.9,2-4.6,0.1-9.5,5l0-4l-1.3-0.4l-1.8,0l-1.3,0.4c0,5.6-0.1,11.1-0.2,16.7c-2.3-3.1-5.2-5.4-7.1-6.7
									c-4.2-2.9-6.4-5.6-7.7-7.7c-1.2-2-1.4-3.3-1.4-3.3c-2.1,3-0.8,5.8,1,8c1.8,2.1,4.2,3.6,4.2,3.6s-2.2-0.9-5.3-1.1
									c-3.2-0.2-7.3,0.4-11.3,3.1c-3.2,2.3-3.8,5.7-3.6,8.6c0.2,2.9,1.2,5.1,1.2,5.1s-0.2-3.6,4.9-7.5c4.9-3.9,8.6,3.8,15.1-0.3
									c2.3-1.4,2.2-3.4,1.2-4.1c-2.1-1.5-3.1-0.5-3.1-0.5c0.2-1.4,1.3-1.4,2.3-1c1,0.3,2,1.1,2,1.1c4.1,3,6.7,6.7,7.5,10.9
									l-0.5,22.6l1.3,0.4l1.8,0l1.3-0.4l0.4-17c0.1-1,0.1-1.9,0.1-2.9c0.1-7.1,0.4-14.2,0.4-21.3c0.2-0.3,0.4-0.6,0.7-0.8
									c6.1-6.4,9-2.5,14.2-5.6c2.7-1.6,2.2-3.9,2.2-3.9C55.5,230.5,49.5,223.1,45.5,227.3z"/>
								<path class="st2" d="M57.3,280l0.5-21.3L58,248l0.1-5.5l0.1-5.5c0.1-7.2,0-14.2,0.2-20.9c0.2-6.7,0.6-13.2,1.4-19.3
									c-5.4-4.9-10.6-10.1-15.2-16.2c-4.6-6.1-8.7-12.9-11.5-20.9c-3.8,8.1-6.1,16.3-7.7,24.4c-1.5,8-2.3,15.9-2.7,23.4
									c-0.4,7.6-0.5,15-0.5,22.1l-0.1,10.6l-0.2,10.5L57.3,280z"/>
								
									<rect x="18.1" y="271.6" transform="matrix(2.206150e-02 -0.9998 0.9998 2.206150e-02 -253.9326 336.2468)" class="st2" width="53.7" height="52.7"/>
							</g>
							<g>
								<g>
									<path class="st1" d="M31.9,272.1c1.4,1.5,0.7,3.3-0.9,4.2c-1.3,0.8-3.2-0.1-4-0.8c-0.7-0.7-0.6-1.6-0.1-1.9
										c0.5-0.3,1.4-0.1,1.8,0.4c0.4,0.5,0,1.2,0.3,1c0.3-0.2,0.4-0.8,0-1.2c-0.7-0.7-1.6-0.9-2.4-0.4c-0.7,0.4-0.9,1.2-0.1,2.2
										c1.9,2.1,4.6,0.3,9.4,5.2l0.1-4l1.3-0.4l1.8,0l1.3,0.4l-0.4,16.7c2.5-3,5.4-5.1,7.4-6.5c8.5-5.7,9.5-10.9,9.5-10.9
										c4.1,6-5.6,11.5-5.6,11.5s8.8-3.4,16.6,2.8c6.1,4.9,1.8,13.8,1.8,13.8s0.3-3.6-4.6-7.7c-4.8-4.1-8.8,3.5-15.1-1
										c-2.2-1.5-2.1-3.5-1-4.2c2.2-1.5,3.1-0.4,3.1-0.4c-0.3-2.8-4.3-0.1-4.3-0.1c-4.2,2.8-7,6.4-8,10.6l-0.5,22.6l-1.3,0.4
										l-1.8,0l-1.3-0.4l0.4-17c0-1,0-1.9,0.1-2.9L36,283c-0.2-0.3-0.4-0.6-0.7-0.9c-6-6.6-8.9-2.8-14-6c-2.7-1.7-2.1-4-2.1-4
										C21.7,275.1,27.9,267.8,31.9,272.1z"/>
								</g>
							</g>
						</g>
						<g>
							<g>
								<path class="st1" d="M67,152.3c-1.1,0.1-1.9,0.7-2.4,1.4c-0.4,0.6-0.4,1.4-0.2,2.2c0.5,1.4,2.3,2.1,3.3,2.4
									c0.4,0.1,0.8,0,1-0.2c0.1-0.1,0.2-0.2,0.3-0.4c0.1-0.2,0.1-0.3,0.1-0.5c-0.1-0.7-0.9-1.1-1.6-1c-0.4,0.1-0.5,0.2-0.7,0.3
									c-0.1,0.1-0.2,0.2-0.2,0.1c-0.1-0.3,0.2-0.7,0.8-0.8c1.1-0.1,1.9,0.4,2,1.4c0.1,0.4-0.1,0.9-0.4,1.2
									c-0.2,0.2-0.6,0.3-1.2,0.3c-1.3-0.1-2.1-0.9-3.4-1.7c-0.7-0.4-1.5-0.8-2.5-1.1c-1.1-0.3-2.4-0.5-4.1-0.4
									c0.8-1,1.7-1.9,2.6-2.9l-0.7-1.2l-1.3-1.3l-1.2-0.6c-4,4.2-7.4,9-10.1,14.1c-0.7-3.9-1.8-7.5-2.5-10c-0.8-2.6-1-4.9-1.1-7
									c0.1-2,0.4-3.9,0.8-5.3c0.4-1.4,0.9-2.5,1.3-3.2c0.4-0.7,0.7-1,0.7-1c-1.1,0.3-2,0.8-2.8,1.5c-0.8,0.6-1.4,1.3-1.9,2.2
									c-1,1.6-1.4,3.4-1.5,5.1c-0.1,1.7,0.1,3.2,0.3,4.4c0.3,1.1,0.5,1.8,0.5,1.8s-1.2-2.1-3.7-4.1c-1.3-1-2.8-1.9-4.8-2.4
									c-2-0.5-4.5-0.5-7.3,0.4c-4.6,1.5-7.5,6-8.9,10c-0.7,2-1.1,3.8-1.3,5.2c-0.2,1.3-0.2,2.2-0.2,2.2s0.4-1.2,1.6-2.9
									c1.3-1.7,3.4-3.8,6.9-5.2c1.7-0.8,2.9-0.6,3.9,0c1,0.6,1.7,1.7,2.6,2.7c1.7,2.1,3.6,4,7.6,3c2.8-0.6,3.7-2.6,3.3-3.9
									c-0.5-1.3-1.1-1.8-1.6-2c-0.5-0.2-0.9,0-0.9,0c1-1.4,1.9-0.9,2.6,0c0.7,0.9,1.1,2.1,1.1,2.1c1.9,5,2.7,9.6,2,14
									c-2.8,7.3-4.4,14.9-5.4,22.4l1.2,0.6l1.8,0.2l1.3-0.2c0.7-5.5,1.8-11,3.4-16.3c0.4-0.9,0.6-1.8,0.8-2.7
									c2.2-6.5,5.4-12.7,9.5-18.1c0.3-0.1,0.7-0.1,1.1-0.2c4.3-0.5,6.3,0.8,8,2.1c1.7,1.3,3.1,2.8,5.7,3.8
									c0.7,0.3,1.2,0.4,1.7,0.4c0.2,0,0.4,0,0.6,0c0,0,0.1,0,0.1,0L74,163c0.1-0.1,0.3-0.2,0.4-0.2c1-0.6,1.5-1.4,1.5-1.4
									c-2.4,0.6-2.7-2.2-3.5-4.7c-0.6-1.1-1.2-2.2-2-3c-0.4-0.4-0.9-0.8-1.4-1C68.4,152.3,67.8,152.1,67,152.3z"/>
								<path class="st2" d="M59.7,196.8c0.4-3,0.9-6,1.5-8.8c0.6-2.8,1.4-5.5,2.3-8c1.8-5.1,4.1-9.4,7.1-13
									c0.4-0.4,0.7-0.9,1.1-1.3l1.2-1.3l1.6-1.5c0.5-0.5,0.9-0.9,1.4-1.4l1.1-1.1c1.7-1.9,3.6-3.5,5.6-5.1
									c4.1-3.1,8.6-5.6,13.6-7.4c2.5-13.6,9.9-27.7,21.5-39.5c-8.6-0.1-17.2,0.9-25.6,3.2c-8.4,2.2-16.6,5.6-24.1,10.3l-2.8,1.8
									l-2.7,1.9c-1.8,1.3-3.5,2.7-5.3,4.1c-0.9,0.7-1.7,1.5-2.5,2.2c-0.8,0.8-1.7,1.5-2.4,2.3l-2.2,2.3c-0.2,0.2-0.3,0.4-0.5,0.6
									l-0.7,0.7c-3.3,3.2-6.4,6.7-9,10.5c-2.6,3.8-4.9,7.7-6.8,11.7c2.9,7.9,7,14.8,11.5,20.9C49.2,186.7,54.3,191.9,59.7,196.8z"
									/>
								<path class="st2" d="M19.8,239.1c0.1-8.7,0-17.9,0.4-27.4c0.4-9.5,1.1-19.4,3.2-29.8L75,192.5c-1.2,6.1-1.9,13.3-2.2,21.2
									c-0.3,7.9-0.2,16.5-0.3,25.9L19.8,239.1z"/>
							</g>
							<g>
								<g>
									<path class="st1" d="M35.6,185.9c1.1,1.8,0.1,3.5-1.5,4.3c-1.4,0.6-3.1-0.5-3.8-1.4c-0.6-0.8-0.3-1.8,0.2-2
										c0.6-0.3,1.4,0.1,1.8,0.7c0.4,0.6-0.2,1.2,0.1,1.1c0.3-0.1,0.5-0.8,0.2-1.2c-0.5-0.9-1.4-1.2-2.3-0.8
										c-0.8,0.3-1.2,1.2-0.4,2.4c0.8,1.2,1.9,1.4,3.3,2.1c1.4,0.6,3.2,1.7,5.3,4.5c0.2-1.4,0.3-2.7,0.6-4.1l1.3-0.2l1.8,0.3
										l1.2,0.6c-0.8,5.4-1.3,10.9-1.6,16.4c2.6-2.9,5.6-4.8,7.7-5.9c4.4-2.4,7-4.6,8.5-6.2c0.7-0.8,1.2-1.5,1.5-1.9
										c0.3-0.5,0.4-0.7,0.4-0.7c1.7,2.8,0.1,5.1-2,6.8c-1,0.9-2.2,1.6-3,2.1c-0.9,0.5-1.5,0.8-1.5,0.8s2.3-0.6,5.4-0.5
										c3.2,0.2,7.2,1.1,11,3.9c2.9,2.2,3.3,5.2,3,7.7c-0.3,2.5-1.4,4.6-1.4,4.6s0.1-0.8-0.5-2.1c-0.5-1.3-1.7-3-4.1-4.9
										c-2.3-1.9-4.6-1.2-7-0.5c-2.4,0.7-5,1.4-8.1-0.8c-2.2-1.5-2-3.4-0.9-4c2.2-1.3,3.2-0.2,3.2-0.2c-0.1-1.3-1.1-1.4-2.2-1.2
										c-1.1,0.2-2.1,0.8-2.1,0.8c-4.3,2.5-7.2,6-8.2,10.2c-0.2,7.5-0.2,15-0.2,22.6l-1.3,0.4l-1.8,0l-1.3-0.4l0.1-17
										c-0.1-1,0-1.9,0-2.9c0.1-7.1,0.4-14.3,1.2-21.4c-0.2-0.3-0.4-0.6-0.6-0.9c-2.6-3.6-4.8-4.6-6.8-5.2
										c-2.1-0.6-4.1-0.6-6.4-2.7c-1.2-1.1-1.6-2.3-1.6-3.2c0-0.9,0.2-1.6,0.2-1.6c1,1.8,3.4,0.9,5.9,0.3
										C31.5,183.5,34.1,183.3,35.6,185.9z"/>
								</g>
							</g>
						</g>
					</g>
				</g>
				<g>
					<g>
						<g>
							<g>
								<path class="st1" d="M67,152.3c-1.1,0.1-1.9,0.7-2.4,1.4c-0.4,0.6-0.4,1.4-0.2,2.2c0.5,1.4,2.3,2.1,3.3,2.4
									c0.4,0.1,0.8,0,1-0.2c0.1-0.1,0.2-0.2,0.3-0.4c0.1-0.2,0.1-0.3,0.1-0.5c-0.1-0.7-0.9-1.1-1.6-1c-0.4,0.1-0.5,0.2-0.7,0.3
									c-0.1,0.1-0.2,0.2-0.2,0.1c-0.1-0.3,0.2-0.7,0.8-0.8c1.1-0.1,1.9,0.4,2,1.4c0.1,0.4-0.1,0.9-0.4,1.2
									c-0.2,0.2-0.6,0.3-1.2,0.3c-1.3-0.1-2.1-0.9-3.4-1.7c-0.7-0.4-1.5-0.8-2.5-1.1c-1.1-0.3-2.4-0.5-4.1-0.4
									c0.8-1,1.7-1.9,2.6-2.9l-0.7-1.2l-1.3-1.3l-1.2-0.6c-4,4.2-7.4,9-10.1,14.1c-0.7-3.9-1.8-7.5-2.5-10c-0.8-2.6-1-4.9-1.1-7
									c0.1-2,0.4-3.9,0.8-5.3c0.4-1.4,0.9-2.5,1.3-3.2c0.4-0.7,0.7-1,0.7-1c-1.1,0.3-2,0.8-2.8,1.5c-0.8,0.6-1.4,1.3-1.9,2.2
									c-1,1.6-1.4,3.4-1.5,5.1c-0.1,1.7,0.1,3.2,0.3,4.4c0.3,1.1,0.5,1.8,0.5,1.8s-1.2-2.1-3.7-4.1c-1.3-1-2.8-1.9-4.8-2.4
									c-2-0.5-4.5-0.5-7.3,0.4c-4.6,1.5-7.5,6-8.9,10c-0.7,2-1.1,3.8-1.3,5.2c-0.2,1.3-0.2,2.2-0.2,2.2s0.4-1.2,1.6-2.9
									c1.3-1.7,3.4-3.8,6.9-5.2c1.7-0.8,2.9-0.6,3.9,0c1,0.6,1.7,1.7,2.6,2.7c1.7,2.1,3.6,4,7.6,3c2.8-0.6,3.7-2.6,3.3-3.9
									c-0.5-1.3-1.1-1.8-1.6-2c-0.5-0.2-0.9,0-0.9,0c1-1.4,1.9-0.9,2.6,0c0.7,0.9,1.1,2.1,1.1,2.1c1.9,5,2.7,9.6,2,14
									c-2.8,7.3-4.4,14.9-5.4,22.4l1.2,0.6l1.8,0.2l1.3-0.2c0.7-5.5,1.8-11,3.4-16.3c0.4-0.9,0.6-1.8,0.8-2.7
									c2.2-6.5,5.4-12.7,9.5-18.1c0.3-0.1,0.7-0.1,1.1-0.2c4.3-0.5,6.3,0.8,8,2.1c1.7,1.3,3.1,2.8,5.7,3.8
									c0.7,0.3,1.2,0.4,1.7,0.4c0.2,0,0.4,0,0.6,0c0,0,0.1,0,0.1,0L74,163c0.1-0.1,0.3-0.2,0.4-0.2c1-0.6,1.5-1.4,1.5-1.4
									c-2.4,0.6-2.7-2.2-3.5-4.7c-0.6-1.1-1.2-2.2-2-3c-0.4-0.4-0.9-0.8-1.4-1C68.4,152.3,67.8,152.1,67,152.3z"/>
								<path class="st2" d="M59.7,196.8c0.4-3,0.9-6,1.5-8.8c0.6-2.8,1.4-5.5,2.3-8c1.8-5.1,4.1-9.4,7.1-13
									c0.4-0.4,0.7-0.9,1.1-1.3l1.2-1.3l1.6-1.5c0.5-0.5,0.9-0.9,1.4-1.4l1.1-1.1c1.7-1.9,3.6-3.5,5.6-5.1
									c4.1-3.1,8.6-5.6,13.6-7.4c2.5-13.6,9.9-27.7,21.5-39.5c-8.6-0.1-17.2,0.9-25.6,3.2c-8.4,2.2-16.6,5.6-24.1,10.3l-2.8,1.8
									l-2.7,1.9c-1.8,1.3-3.5,2.7-5.3,4.1c-0.9,0.7-1.7,1.5-2.5,2.2c-0.8,0.8-1.7,1.5-2.4,2.3l-2.2,2.3c-0.2,0.2-0.3,0.4-0.5,0.6
									l-0.7,0.7c-3.3,3.2-6.4,6.7-9,10.5c-2.6,3.8-4.9,7.7-6.8,11.7c2.9,7.9,7,14.8,11.5,20.9C49.2,186.7,54.3,191.9,59.7,196.8z"
									/>
								<path class="st2" d="M19.8,239.1c0.1-8.7,0-17.9,0.4-27.4c0.4-9.5,1.1-19.4,3.2-29.8L75,192.5c-1.2,6.1-1.9,13.3-2.2,21.2
									c-0.3,7.9-0.2,16.5-0.3,25.9L19.8,239.1z"/>
							</g>
							<g>
								<g>
									<path class="st1" d="M35.6,185.9c1.1,1.8,0.1,3.5-1.5,4.3c-1.4,0.6-3.1-0.5-3.8-1.4c-0.6-0.8-0.3-1.8,0.2-2
										c0.6-0.3,1.4,0.1,1.8,0.7c0.4,0.6-0.2,1.2,0.1,1.1c0.3-0.1,0.5-0.8,0.2-1.2c-0.5-0.9-1.4-1.2-2.3-0.8
										c-0.8,0.3-1.2,1.2-0.4,2.4c0.8,1.2,1.9,1.4,3.3,2.1c1.4,0.6,3.2,1.7,5.3,4.5c0.2-1.4,0.3-2.7,0.6-4.1l1.3-0.2l1.8,0.3
										l1.2,0.6c-0.8,5.4-1.3,10.9-1.6,16.4c2.6-2.9,5.6-4.8,7.7-5.9c4.4-2.4,7-4.6,8.5-6.2c0.7-0.8,1.2-1.5,1.5-1.9
										c0.3-0.5,0.4-0.7,0.4-0.7c1.7,2.8,0.1,5.1-2,6.8c-1,0.9-2.2,1.6-3,2.1c-0.9,0.5-1.5,0.8-1.5,0.8s2.3-0.6,5.4-0.5
										c3.2,0.2,7.2,1.1,11,3.9c2.9,2.2,3.3,5.2,3,7.7c-0.3,2.5-1.4,4.6-1.4,4.6s0.1-0.8-0.5-2.1c-0.5-1.3-1.7-3-4.1-4.9
										c-2.3-1.9-4.6-1.2-7-0.5c-2.4,0.7-5,1.4-8.1-0.8c-2.2-1.5-2-3.4-0.9-4c2.2-1.3,3.2-0.2,3.2-0.2c-0.1-1.3-1.1-1.4-2.2-1.2
										c-1.1,0.2-2.1,0.8-2.1,0.8c-4.3,2.5-7.2,6-8.2,10.2c-0.2,7.5-0.2,15-0.2,22.6l-1.3,0.4l-1.8,0l-1.3-0.4l0.1-17
										c-0.1-1,0-1.9,0-2.9c0.1-7.1,0.4-14.3,1.2-21.4c-0.2-0.3-0.4-0.6-0.6-0.9c-2.6-3.6-4.8-4.6-6.8-5.2
										c-2.1-0.6-4.1-0.6-6.4-2.7c-1.2-1.1-1.6-2.3-1.6-3.2c0-0.9,0.2-1.6,0.2-1.6c1,1.8,3.4,0.9,5.9,0.3
										C31.5,183.5,34.1,183.3,35.6,185.9z"/>
								</g>
							</g>
						</g>
						<g>
							<g>
								<path class="st1" d="M140.8,133.2c-1.4-1.5-3.2-1-4.3,0.4c-0.9,1.2-0.2,3.1,0.4,4c0.6,0.8,1.5,0.8,1.8,0.3
									c0.4-0.5,0.2-1.4-0.2-1.9c-0.4-0.5-1.1-0.1-0.9-0.4c0.2-0.3,0.8-0.3,1.1,0.1c0.7,0.7,0.7,1.7,0.2,2.4
									c-0.5,0.7-1.3,0.8-2.2-0.2c-1.9-2.1,0.2-4.6-4.2-9.9l4,0.3l0.5-1.2l0.1-1.8l-0.3-1.3l-8.3-0.7l-4.2-0.3
									c-1.4-0.1-2.9-0.2-4.3-0.3c1.6-1.1,3.1-2.4,4.4-3.5c1.2-1.2,2.2-2.3,3-3.3c6.5-7.9,11.8-8.3,11.8-8.3
									c-5.6-4.7-12.1,4.3-12.1,4.3s4.3-8.4-1-16.8c-0.2-0.4-0.7-0.8-1.1-1.1c-0.4-0.3-0.9-0.6-1.4-0.9c-0.9-0.5-2-0.9-3-1.2
									c-2.1-0.6-4.4-0.6-6.4-0.5c-2,0.2-3.8,0.6-5.1,1c-1.3,0.3-2,0.7-2,0.7s0.3-0.1,0.9,0c0.6,0,1.4,0.1,2.4,0.3
									c1,0.2,2.1,0.6,3.4,1.2c1.2,0.7,2.6,1.6,3.9,2.8c2.6,2.4,1.3,4.6,0.2,7c-1.2,2.4-2,4.9,0.4,8.1c1.6,2.2,3.8,2.3,4.7,1.3
									c0.9-1,1.1-1.8,1.1-2.3c0-0.5-0.3-0.8-0.3-0.8c0.9,0.1,1.1,0.5,1.2,0.9c0.1,0.4,0,0.9-0.2,1.4c-0.4,1-1.3,1.9-1.3,1.9
									c-3.6,3.9-7.4,6.5-11.7,7.7c-7.7,0.4-15.4,2-22.7,4.6l0.1,1.3l0.6,1.7l0.8,1.1c5.2-1.9,10.6-3.2,16.1-3.9
									c1,0,1.9-0.1,2.8-0.3c1.7-0.2,3.4-0.2,5.2-0.3c1.7,0,3.5,0,5.2,0.1c3.4,0.2,7,0.5,10.5,0.8c0.3,0.2,0.5,0.5,0.8,0.8
									c5.9,6.6,1.8,9.2,4.5,14.6c1.4,2.8,3.7,2.5,3.7,2.5C136.8,142.9,144.6,137.5,140.8,133.2z"/>
								<path class="st2" d="M96.2,147.7c5-1.8,10.3-2.9,15.7-3.4c2.7-0.1,5.4-0.3,8.1-0.1l2.1,0.1l2.7,0.2l5.3,0.4l42.5,3.6
									l31.4-33.5l-42.5-3.6l-21.3-1.8l-10.6-0.9l-2.7-0.2l-1.3-0.1l-0.7-0.1l-0.8,0c-2.1-0.1-4.3-0.3-6.4-0.3
									C106.1,119.9,98.6,134.1,96.2,147.7z"/>
								<path class="st2" d="M38.9,145.4c0.9-1.2,1.8-2.4,2.8-3.5c0.9-1.2,2-2.3,3-3.4c0.5-0.6,1-1.1,1.6-1.6l1.5-1.4
									c0.2-0.2,0.4-0.4,0.6-0.6l1.1-1.2c4-4.2,8.4-8,13.1-11.3c4.7-3.3,9.7-6.1,14.9-8.4c5.2-2.3,10.5-4.1,15.9-5.4l12.4,51.2
									c-2.4,0.6-4.8,1.4-7,2.4c-2.2,1-4.2,2.2-6.1,3.4c-1.9,1.3-3.5,2.7-5,4.3l-1.2,1.3c-0.7,0.8-1.4,1.5-2.2,2.2l-0.8,0.7
									c-0.2,0.1-0.3,0.3-0.5,0.5c-0.3,0.3-0.6,0.6-0.9,1c-0.3,0.3-0.6,0.7-0.8,1.1L38.9,145.4z"/>
							</g>
							<g>
								<g>
									<path class="st1" d="M94.9,121.3c-1.2,1.8-3.2,1.6-4.6,0.5c-1.2-1-0.9-3-0.4-4.1c0.5-0.9,1.5-1.1,2-0.7
										c0.5,0.4,0.5,1.3,0.1,1.9c-0.4,0.6-1.2,0.3-0.9,0.6c0.3,0.2,0.9,0.1,1.2-0.3c0.6-0.9,0.5-1.8-0.2-2.4
										c-0.7-0.5-1.7-0.5-2.4,0.7c-0.8,1.3-0.5,2.4-0.4,4c0,0.8,0,1.7-0.2,2.8c-0.2,1.1-0.7,2.4-1.4,4c1.3-0.5,2.6-0.9,3.9-1.4
										l0.8,1.1l0.5,1.7l0,1.3c-5.1,1.7-10.1,3.9-14.7,6.7c1.9,0.2,3.6,0.8,5.1,1.4c0.7,0.3,1.4,0.7,2,1c0.6,0.4,1.2,0.7,1.7,1
										c4.1,2.6,6.9,4,8.8,4.7c1.9,0.7,2.9,0.6,2.9,0.6c-0.7,1.4-1.7,1.9-2.7,1.9c-1,0.1-2.2-0.3-3.3-0.8c-2.2-1-4.3-2.6-4.3-2.6
										s1.6,1.7,3.1,4.5c0.7,1.4,1.4,3.1,2,5c0.3,0.9,0.5,1.9,0.7,2.9c0.2,1,0.3,2.1,0.4,3.2c0.1,1.7-0.1,2.8-0.5,3.7
										c-0.2,0.4-0.5,0.7-0.8,1c-0.3,0.3-0.6,0.5-0.9,0.7c-0.3,0.2-0.7,0.3-1,0.3c-0.3,0.1-0.6,0.2-0.9,0.2
										c-0.5,0.1-0.9,0.1-0.9,0.1s0.4-0.2,0.6-1.2c0.1-0.5,0.2-1,0.2-1.9c0-0.8-0.1-1.9-0.3-3.3c-0.3-2.7-1.9-4.3-3.7-5.9
										c-0.9-0.8-1.9-1.7-2.6-2.8c-0.8-1.1-1.4-2.4-1.5-4.2c-0.2-2.5,1.3-3.4,2.4-2.7c1.1,0.6,1.5,1.3,1.7,1.8
										c0.2,0.5,0.1,0.8,0.1,0.8c0.9-0.7,0.4-1.6-0.3-2.4c-0.7-0.8-1.7-1.4-1.7-1.4c-4.2-2.5-8.7-2.9-12.5-1.1
										c-1.4,1.1-2.8,2.3-4.1,3.6c-0.7,0.6-1.4,1.2-2,1.9l-1.9,2c-1.4,1.5-2.7,2.6-3.9,4l-0.9,1l-0.9,1c-0.6,0.7-1.2,1.4-1.7,2.1
										l-1.2-0.5l-1.4-1.1l-0.8-1.1c0.4-0.6,0.9-1.2,1.4-1.7l1.4-1.7c1-1.1,2-2.2,3-3.2l1.5-1.5l1.4-1.5l1.5-1.6l1.6-1.5
										c0.7-0.7,1.4-1.4,2.2-2c5.6-4.7,11.8-8.6,18.6-11.4c0.2-0.3,0.4-0.6,0.5-1c2-4.1,2-6.4,1.5-8.5c-0.4-2.1-1.3-3.9-0.4-7
										c0.3-0.8,0.6-1.4,1.1-1.9c0.4-0.5,0.9-0.8,1.3-1c0.9-0.5,1.6-0.5,1.6-0.5c-1.3,1.7,0.7,3.4,2.3,5.4
										C95.3,116.6,96.6,118.8,94.9,121.3z"/>
								</g>
							</g>
						</g>
					</g>
				</g>
			</g>
		</g>
	</g>
	<g id="XMLID_197_">
		<g>
			<g>
				<g>
					<g>
						<g>
							<g>
								<path class="st1" d="M160,98.8c-1.7-1.5-3.7-0.9-4.9,0.5c-1,1.2-0.2,3.1,0.5,4.1c0.7,0.8,1.8,0.8,2.2,0.3
									c0.4-0.5,0.2-1.4-0.3-1.9c-0.5-0.5-1.3-0.1-1.1-0.4c0.2-0.3,0.9-0.3,1.3,0.1c0.8,0.7,0.9,1.7,0.3,2.4
									c-0.6,0.7-1.6,0.8-2.6-0.2c-1.1-1.1-1-2.2-1.3-3.8c-0.3-1.6-1-3.5-3.2-6.3c1.4,0.2,2.8,0.4,4.3,0.5l0.5-1.2l0.2-1.8
									l-0.3-1.3c-5.6-0.6-11.3-1.7-17-2.7c3.6-1.8,6.3-4.2,8.1-6c3.7-3.6,6.5-5.5,8.5-6.5c1-0.5,1.7-0.8,2.2-1
									c0.5-0.2,0.8-0.2,0.8-0.2c-2.2-2.3-4.8-1.3-7.1,0.2c-1.2,0.8-2.2,1.6-3,2.4c-0.8,0.7-1.2,1.2-1.2,1.2s1.3-2,2-5.1
									c0.7-3.1,0.9-7.3-1.4-11.7c-3.8-7-13.8-4.6-13.8-4.6s3.7,0.4,6.9,6.1c3.3,5.5-5.3,7.9-2,15c1.1,2.5,3.1,2.8,4.1,1.8
									c1.9-1.8,1-3,1-3c2.8,0.8-0.7,4.2-0.7,4.2c-3.7,3.6-7.9,5.6-12.4,5.7l-23.2-4.2l-0.6,1.2l-0.3,1.8l0.2,1.3l17.5,3.1
									c1,0.3,2,0.4,2.9,0.5l10.9,2c3.6,0.6,7.3,1.3,11,1.9c0.3,0.3,0.5,0.5,0.8,0.8c2.9,3.5,3.5,5.8,3.5,8c0,2.1-0.5,4.1,1.2,6.9
									c0.9,1.5,2.1,2.1,3.1,2.4c1,0.3,1.8,0.2,1.8,0.2c-1.8-1.4-0.1-3.5,1.2-5.8C161.6,103.3,162.4,100.8,160,98.8z"/>
								<path class="st2" d="M103,102.4l30.7,5.5l7.8,1.4c2.7,0.5,5.5,0.9,8.6,1.3c3,0.4,6.1,0.7,9.6,0.8c3.5,0.1,7,0,10.5-0.4
									c3-0.4,5.9-0.9,8.9-1.6c0.7-0.2,1.5-0.4,2.2-0.6l2.2-0.6c1.4-0.4,2.7-0.9,4-1.3c5.2-1.9,9.9-4.1,14.2-6.2l0.4-1.3
									c0.1-0.2,0.1-0.4,0.2-0.7l0-0.6c0.1-0.8,0.1-1.6,0.2-2.4c0.2-1.6,0.4-3.3,0.7-5c0.6-3.4,1.6-7,2.8-10.7
									c2.5-7.4,6.4-15.2,11.9-21.5c1-1.1,2-2.2,3.1-3.3c-1,0.1-2.1,0.2-3.1,0.3c-5.7,0.8-11.1,2.8-16.4,5.2
									c-2.7,1.2-5.3,2.5-7.9,3.8l-7.5,3.8c-3.7,1.9-7.2,3.5-10.5,4.7c-0.8,0.3-1.6,0.6-2.4,0.8l-1.1,0.3c-0.4,0.1-0.7,0.2-1.1,0.3
									c-1.5,0.4-3,0.6-4.5,0.8c-1.9,0.2-3.7,0.2-5.6,0.2c-2-0.1-4.2-0.3-6.5-0.6c-2.3-0.3-4.8-0.7-7.4-1.2l-8-1.4L103,102.4z"/>
								
									<rect x="60.1" y="59.3" transform="matrix(0.1773 -0.9842 0.9842 0.1773 -14.764 156.8876)" class="st2" width="52.7" height="56"/>
							</g>
							<g>
								<g>
									<path class="st1" d="M115,78.6c-1.8,1.1-3.5,0.1-4.2-1.5c-0.6-1.4,0.6-3.1,1.5-3.8c0.8-0.6,1.7-0.3,1.9,0.2
										c0.2,0.6-0.1,1.4-0.7,1.8c-0.6,0.4-1.2-0.2-1,0.1c0.1,0.3,0.7,0.5,1.2,0.2c0.9-0.5,1.1-1.4,0.8-2.3
										c-0.3-0.8-1.1-1.1-2.3-0.4c-2.4,1.5-1,4.5-6.9,8.4l4.1,0.7l0.2,1.3l-0.3,1.8l-0.6,1.2l-17.2-3.1c2.7,2.9,4.5,6.2,5.5,8.4
										c4.5,9.3,9.7,11.1,9.7,11.1c-6.8,3.1-11-7.4-11-7.4s2.2,9.3-5.4,15.9c-6,5.2-14.5-0.5-14.5-0.5s3.6,0.9,8.6-3.3
										c5-4-2.2-9.3,3.4-14.8c1.9-1.9,3.9-1.5,4.5-0.3c1.2,2.4-0.1,3.2-0.1,3.2c2.9,0.2,0.8-4.2,0.8-4.2c-2.2-4.6-5.5-8-9.7-9.7
										l-23.2-4.2L60,76.2l0.3-1.8l0.6-1.2l17.5,3.1c1,0.1,2,0.3,2.9,0.5l21.8,3.9c0.3-0.2,0.7-0.3,1-0.5
										c7.7-4.8,4.2-8.4,8.3-12.9c2.1-2.4,4.4-1.4,4.4-1.4C113.6,68.1,120.1,75.4,115,78.6z"/>
								</g>
							</g>
						</g>
						<g>
							<g>
								<path class="st1" d="M240.2,86.6c-0.5-2.1-2.2-2.4-3.5-1.4c-1.1,0.9-1.2,3.1-1,4.3c0.2,1,0.8,1.3,1.2,1
									c0.4-0.4,0.7-1.3,0.6-1.9c-0.2-0.7-0.8-0.5-0.6-0.8c0.3-0.2,0.7,0,0.8,0.5c0.2,1-0.1,2-0.8,2.5c-0.6,0.5-1.2,0.3-1.5-1
									c-0.3-1.4,0.1-2.5,0.4-4.2c0.2-1.7,0.4-4-0.9-7.6c1.2,0.6,2.4,1.3,3.5,2l0.8-1l0.7-1.7l0.1-1.4c-2.6-1.6-5.3-3-8.1-4
									c-2.8-1.1-5.8-1.8-8.8-1.9c3.5-2.2,6.5-4.4,8.5-5.9c4.2-3.1,8.3-3.9,11.1-3.8c1.4,0,2.6,0.2,3.3,0.4
									c0.8,0.2,1.2,0.4,1.2,0.4c-2.8-4-7.1-4.5-10.2-3.7c-3.2,0.8-5.4,2.7-5.4,2.7s0.4-0.5,0.9-1.3c0.5-0.8,1.1-2.1,1.5-3.6
									c0.4-1.5,0.6-3.4,0.3-5.5c-0.4-2.1-1.3-4.4-3.3-6.8c-3.2-3.7-8.9-4.6-13.4-3.9c-2.3,0.4-4.4,1-5.9,1.6
									c-1.5,0.6-2.3,1.1-2.3,1.1s0.9-0.3,2.4-0.3c1.5,0,3.6,0.2,5.9,1.2c1.1,0.5,2.4,1.2,3.5,2.2c3,2.4,1.4,4.6,0.1,7
									c-0.7,1.2-1.3,2.5-1.3,3.8c-0.1,1.4,0.3,2.7,1.6,4.3c1.7,2.2,4,2.3,5.1,1.4c1-0.9,1.3-1.7,1.3-2.2c0-0.5-0.3-0.8-0.3-0.8
									c1.8,0.5,1.6,1.5,1,2.5c-0.6,1-1.5,1.8-1.5,1.8c-3,2.7-6.1,4.8-9.2,6.8c-1.1,0.7-2.2,1.3-3.3,1.9c-3.9,1.2-7.6,3-11.2,4.8
									l-10.9,5.5l0.2,1.3l0.8,1.6l0.9,1c5.2-2.6,10.1-5.3,15.3-7.7c0.9-0.3,1.8-0.7,2.6-1.1c1.8-0.7,3.7-1.3,5.6-1.7
									c2.5-0.5,5.1-0.5,7.7-0.1c2.5,0.4,5,1.3,7.3,2.3c0.2,0.3,0.4,0.7,0.6,1.1c1,2.3,1.3,4.1,1.4,5.6c0,1.5-0.2,2.7-0.5,3.8
									c-0.6,2.2-1.4,4.2-1.5,7.3c0,1.6,0.3,2.5,0.6,3c0.3,0.5,0.7,0.6,0.7,0.6c-0.2-1.8,1.4-3.4,3.1-5.2
									C239,91.4,240.9,89.6,240.2,86.6z"/>
								<path class="st2" d="M201.6,100.8l8.3-4.2c2.6-1.3,5.3-2.6,8.2-3.2c3.3-0.7,6.7,0,9.7,1.3c3,1.3,5.8,3.2,8.4,5.2
									c2.6,2,5,4.3,7.2,6.8c1.1,1.3,2.1,2.6,3.1,3.9l1.3,1.7c0.8,1,1.9,2.4,3.6,4c0.9,0.8,1.9,1.6,3.1,2.4c1.2,0.8,2.4,1.5,3.5,2
									c2.3,1,4.2,1.5,5.6,1.8c1.5-0.4,2.5-1,3.3-1.7l2.3-1.9c1.5-1.3,3.1-2.6,4.5-3.9c3-2.6,5.9-5.3,8.6-8
									c5.5-5.5,10.7-11.2,15.4-17c-6.8-0.2-13.6-0.8-20.4-1.7c-1.7-0.2-3.4-0.5-5-0.8c-0.9-0.1-1.2-0.2-0.5,0
									c0.4,0.1,0.9,0.3,1.6,0.7c0.7,0.4,1.6,1,2.1,1.4c1,0.9,1.1,1.2,0.8,0.7l-1-1.4l-1.1-1.5c-1.5-1.9-3-3.8-4.6-5.7
									c-6.4-7.3-13.9-13.6-22.1-18.6c-4.1-2.5-8.4-4.6-12.9-6.1c-4.5-1.5-9.3-2.3-14-2c-1.1,1-2.1,2.1-3.1,3.3
									c-5.5,6.3-9.4,14.1-11.9,21.5c-1.3,3.7-2.2,7.3-2.8,10.7c-0.3,1.7-0.6,3.4-0.7,5c-0.1,0.8-0.1,1.6-0.2,2.4l0,0.6
									c0,0.2-0.1,0.4-0.2,0.7L201.6,100.8z"/>
								<path class="st2" d="M150.9,72.1c3,0.5,5.8,0.9,8.3,1c1.3,0.1,2.3,0.1,3.4,0.1c1.1,0,2.2-0.1,3.3-0.2
									c1.9-0.2,3.8-0.6,5.6-1.1c1.9-0.5,4-1.3,6.2-2.2c2.2-0.9,4.5-2,7-3.2l10.3-5.2l16.9,50.5l-3.8,1.9c-3,1.5-6.4,3.1-10,4.6
									c-3.7,1.5-7.6,3-12.2,4.3c-4.7,1.3-9.4,2.3-14.2,2.9c-2.7,0.3-5.5,0.5-8.2,0.5c-2.7,0-5.6-0.1-8-0.2
									c-4.9-0.3-9.3-1-13.2-1.6L150.9,72.1z"/>
							</g>
							<g>
								<g>
									<path class="st1" d="M197.7,74.1c-1.1,2.1-3.1,2.4-4.7,1.5c-1.4-0.7-1.3-2.9-0.8-4.1c0.4-1,1.5-1.5,2-1.2
										c0.6,0.3,0.7,1.2,0.3,1.9c-0.3,0.7-1.3,0.6-0.9,0.8c0.3,0.2,1-0.1,1.3-0.6c0.5-1,0.3-2-0.5-2.4c-0.8-0.4-1.8-0.1-2.5,1.3
										c-0.7,1.5-0.3,2.5-0.1,4.1c0.1,0.8,0.2,1.7,0.1,2.9c-0.1,1.1-0.3,2.5-0.9,4.1l3.8-1.9l0.9,1l0.7,1.6l0.2,1.3l-3.9,1.9
										c-1.3,0.6-2.7,1.3-4,1.9c-2.7,1.2-5.5,2.3-8.3,3.3c3.9,1.2,7.3,2.9,9.5,4.1c4.7,2.5,8.6,3.2,11.2,3.3c0.3,0,0.6,0,0.9,0
										c0.3,0,0.4,0.1,0.6,0.1c0.4,0,0.6,0.1,0.8,0.1c0.4,0,0.7,0,0.7,0c-0.2,0.7-0.5,1.2-0.9,1.6l-0.2,0.1
										c-0.1,0-0.2,0.1-0.2,0.2c-0.2,0.1-0.3,0.2-0.5,0.3c-0.4,0.2-0.7,0.3-1.1,0.4c-1.5,0.4-3.2,0.3-4.8,0
										c-3.1-0.6-5.6-2.1-5.6-2.1s1.8,1.6,3.3,4.4c1.4,2.8,2.6,6.9,0.2,12.1c-1.9,4.1-6.8,6.4-11.8,7.3c-2.4,0.5-4.5,0.5-6.1,0.5
										c-1.6,0-2.5-0.2-2.5-0.2s0.4,0,1-0.2c0.6-0.1,1.6-0.4,2.6-0.9c2.2-1,5-2.8,7.3-6.1c2.2-3.2,0.1-4.8-1.7-6.8
										c-1-1-1.9-2-2.3-3.2c-0.4-1.3-0.3-2.8,0.5-4.7c1.1-2.7,3.2-3.3,4.4-2.7c1.2,0.7,1.6,1.4,1.7,1.9c0.1,0.5-0.1,0.9-0.1,0.9
										c1.6-0.8,1.1-1.8,0.4-2.6c-0.8-0.8-1.9-1.5-1.9-1.5c-4.7-2.7-9.3-4-14-4c-1.2,0.3-2.5,0.4-3.7,0.6
										c-3.4,0.4-6.9,0.4-10.4,0.2c-3.4-0.2-6.8-0.7-10.1-1.2l-0.2-1.3l0.3-1.8l0.6-1.2c5.8,0.9,11.5,1.6,17.2,1.2
										c0.7-0.1,1.4-0.2,2.1-0.2c0.3,0,0.5,0,0.8-0.1c7.1-0.9,13.8-3.5,20.4-6.6c0.2-0.3,0.3-0.6,0.5-1c1.7-4.2,1.1-6.5,0.5-8.5
										c-0.7-2.1-1.9-3.7-1.1-7c0.4-1.7,1.4-2.9,2.3-3.6c0.9-0.7,1.7-0.9,1.7-0.9c-1.3,2.1,1,3.4,2.9,5.1
										C197.7,69,199.2,71,197.7,74.1z"/>
								</g>
							</g>
						</g>
					</g>
				</g>
				<g>
					<g>
						<g>
							<g>
								<path class="st1" d="M240.2,86.6c-0.5-2.1-2.2-2.4-3.5-1.4c-1.1,0.9-1.2,3.1-1,4.3c0.2,1,0.8,1.3,1.2,1
									c0.4-0.4,0.7-1.3,0.6-1.9c-0.2-0.7-0.8-0.5-0.6-0.8c0.3-0.2,0.7,0,0.8,0.5c0.2,1-0.1,2-0.8,2.5c-0.6,0.5-1.2,0.3-1.5-1
									c-0.3-1.4,0.1-2.5,0.4-4.2c0.2-1.7,0.4-4-0.9-7.6c1.2,0.6,2.4,1.3,3.5,2l0.8-1l0.7-1.7l0.1-1.4c-2.6-1.6-5.3-3-8.1-4
									c-2.8-1.1-5.8-1.8-8.8-1.9c3.5-2.2,6.5-4.4,8.5-5.9c4.2-3.1,8.3-3.9,11.1-3.8c1.4,0,2.6,0.2,3.3,0.4
									c0.8,0.2,1.2,0.4,1.2,0.4c-2.8-4-7.1-4.5-10.2-3.7c-3.2,0.8-5.4,2.7-5.4,2.7s0.4-0.5,0.9-1.3c0.5-0.8,1.1-2.1,1.5-3.6
									c0.4-1.5,0.6-3.4,0.3-5.5c-0.4-2.1-1.3-4.4-3.3-6.8c-3.2-3.7-8.9-4.6-13.4-3.9c-2.3,0.4-4.4,1-5.9,1.6
									c-1.5,0.6-2.3,1.1-2.3,1.1s0.9-0.3,2.4-0.3c1.5,0,3.6,0.2,5.9,1.2c1.1,0.5,2.4,1.2,3.5,2.2c3,2.4,1.4,4.6,0.1,7
									c-0.7,1.2-1.3,2.5-1.3,3.8c-0.1,1.4,0.3,2.7,1.6,4.3c1.7,2.2,4,2.3,5.1,1.4c1-0.9,1.3-1.7,1.3-2.2c0-0.5-0.3-0.8-0.3-0.8
									c1.8,0.5,1.6,1.5,1,2.5c-0.6,1-1.5,1.8-1.5,1.8c-3,2.7-6.1,4.8-9.2,6.8c-1.1,0.7-2.2,1.3-3.3,1.9c-3.9,1.2-7.6,3-11.2,4.8
									l-10.9,5.5l0.2,1.3l0.8,1.6l0.9,1c5.2-2.6,10.1-5.3,15.3-7.7c0.9-0.3,1.8-0.7,2.6-1.1c1.8-0.7,3.7-1.3,5.6-1.7
									c2.5-0.5,5.1-0.5,7.7-0.1c2.5,0.4,5,1.3,7.3,2.3c0.2,0.3,0.4,0.7,0.6,1.1c1,2.3,1.3,4.1,1.4,5.6c0,1.5-0.2,2.7-0.5,3.8
									c-0.6,2.2-1.4,4.2-1.5,7.3c0,1.6,0.3,2.5,0.6,3c0.3,0.5,0.7,0.6,0.7,0.6c-0.2-1.8,1.4-3.4,3.1-5.2
									C239,91.4,240.9,89.6,240.2,86.6z"/>
								<path class="st2" d="M201.6,100.8l8.3-4.2c2.6-1.3,5.3-2.6,8.2-3.2c3.3-0.7,6.7,0,9.7,1.3c3,1.3,5.8,3.2,8.4,5.2
									c2.6,2,5,4.3,7.2,6.8c1.1,1.3,2.1,2.6,3.1,3.9l1.3,1.7c0.8,1,1.9,2.4,3.6,4c0.9,0.8,1.9,1.6,3.1,2.4c1.2,0.8,2.4,1.5,3.5,2
									c2.3,1,4.2,1.5,5.6,1.8c1.5-0.4,2.5-1,3.3-1.7l2.3-1.9c1.5-1.3,3.1-2.6,4.5-3.9c3-2.6,5.9-5.3,8.6-8
									c5.5-5.5,10.7-11.2,15.4-17c-6.8-0.2-13.6-0.8-20.4-1.7c-1.7-0.2-3.4-0.5-5-0.8c-0.9-0.1-1.2-0.2-0.5,0
									c0.4,0.1,0.9,0.3,1.6,0.7c0.7,0.4,1.6,1,2.1,1.4c1,0.9,1.1,1.2,0.8,0.7l-1-1.4l-1.1-1.5c-1.5-1.9-3-3.8-4.6-5.7
									c-6.4-7.3-13.9-13.6-22.1-18.6c-4.1-2.5-8.4-4.6-12.9-6.1c-4.5-1.5-9.3-2.3-14-2c-1.1,1-2.1,2.1-3.1,3.3
									c-5.5,6.3-9.4,14.1-11.9,21.5c-1.3,3.7-2.2,7.3-2.8,10.7c-0.3,1.7-0.6,3.4-0.7,5c-0.1,0.8-0.1,1.6-0.2,2.4l0,0.6
									c0,0.2-0.1,0.4-0.2,0.7L201.6,100.8z"/>
								<path class="st2" d="M150.9,72.1c3,0.5,5.8,0.9,8.3,1c1.3,0.1,2.3,0.1,3.4,0.1c1.1,0,2.2-0.1,3.3-0.2
									c1.9-0.2,3.8-0.6,5.6-1.1c1.9-0.5,4-1.3,6.2-2.2c2.2-0.9,4.5-2,7-3.2l10.3-5.2l16.9,50.5l-3.8,1.9c-3,1.5-6.4,3.1-10,4.6
									c-3.7,1.5-7.6,3-12.2,4.3c-4.7,1.3-9.4,2.3-14.2,2.9c-2.7,0.3-5.5,0.5-8.2,0.5c-2.7,0-5.6-0.1-8-0.2
									c-4.9-0.3-9.3-1-13.2-1.6L150.9,72.1z"/>
							</g>
							<g>
								<g>
									<path class="st1" d="M197.7,74.1c-1.1,2.1-3.1,2.4-4.7,1.5c-1.4-0.7-1.3-2.9-0.8-4.1c0.4-1,1.5-1.5,2-1.2
										c0.6,0.3,0.7,1.2,0.3,1.9c-0.3,0.7-1.3,0.6-0.9,0.8c0.3,0.2,1-0.1,1.2-0.6c0.5-1,0.3-2-0.5-2.4c-0.8-0.4-1.8-0.1-2.5,1.3
										c-0.7,1.5-0.3,2.5-0.1,4.1c0.1,0.8,0.2,1.7,0.1,2.9c-0.1,1.1-0.3,2.5-0.9,4.1l3.8-1.9l0.9,1l0.7,1.6l0.2,1.3l-3.9,1.9
										c-1.3,0.6-2.7,1.3-4,1.9c-2.7,1.2-5.5,2.3-8.3,3.3c3.9,1.2,7.3,2.9,9.5,4.1c4.7,2.5,8.6,3.2,11.2,3.3c0.3,0,0.6,0,0.9,0
										c0.3,0,0.4,0.1,0.6,0.1c0.4,0,0.6,0.1,0.8,0.1c0.4,0,0.7,0,0.7,0c-0.2,0.7-0.5,1.2-0.9,1.6l-0.2,0.1
										c-0.1,0-0.2,0.1-0.2,0.2c-0.2,0.1-0.3,0.2-0.5,0.3c-0.4,0.2-0.7,0.3-1.1,0.4c-1.5,0.4-3.2,0.3-4.8,0
										c-3.1-0.6-5.6-2.1-5.6-2.1s1.8,1.6,3.3,4.4c1.4,2.8,2.6,6.9,0.2,12.1c-1.9,4.1-6.8,6.4-11.8,7.3c-2.4,0.5-4.5,0.5-6.1,0.5
										c-1.6,0-2.5-0.2-2.5-0.2s0.4,0,1-0.2c0.6-0.1,1.6-0.4,2.6-0.9c2.2-1,5-2.8,7.3-6.1c2.2-3.2,0.1-4.8-1.7-6.8
										c-1-1-1.9-2-2.3-3.2c-0.4-1.3-0.3-2.8,0.5-4.7c1.1-2.7,3.2-3.3,4.4-2.7c1.2,0.7,1.6,1.4,1.7,1.9c0.1,0.5-0.1,0.9-0.1,0.9
										c1.6-0.8,1.1-1.8,0.4-2.6c-0.8-0.8-1.9-1.5-1.9-1.5c-4.7-2.7-9.3-4-14-4c-1.2,0.3-2.5,0.4-3.7,0.6
										c-3.4,0.4-6.9,0.4-10.4,0.2c-3.4-0.2-6.8-0.7-10.1-1.2l-0.2-1.3l0.3-1.8l0.6-1.2c5.8,0.9,11.5,1.6,17.2,1.2
										c0.7-0.1,1.4-0.2,2.1-0.2c0.3,0,0.5,0,0.8-0.1c7.1-0.9,13.8-3.5,20.4-6.6c0.2-0.3,0.3-0.6,0.5-1c1.7-4.2,1.1-6.5,0.5-8.5
										c-0.7-2.1-1.9-3.7-1.1-7c0.4-1.7,1.4-2.9,2.3-3.6c0.9-0.7,1.7-0.9,1.7-0.9c-1.3,2.1,1,3.4,2.9,5.1
										C197.7,69,199.2,71,197.7,74.1z"/>
								</g>
							</g>
						</g>
						<g>
							<g>
								<path class="st1" d="M322.2,113.4c-1.6-1.4-3.4-0.7-4.4,0.8c-0.8,1.3,0.1,3.2,0.8,4c0.7,0.7,1.6,0.6,1.9,0.1
									c0.3-0.5,0.1-1.4-0.4-1.9c-0.5-0.5-1.2,0-1-0.3c0.2-0.3,0.8-0.4,1.2,0c0.8,0.7,0.9,1.6,0.4,2.4c-0.5,0.7-1.3,0.9-2.3,0
									c-2.1-1.9-0.2-4.6-5.3-9.5l4.2,0l0.4-1.3l0-1.8l-0.4-1.3c-5.8,0-11.7,0-17.4,0c1.6-1.2,2.9-2.5,4.1-3.8
									c1.2-1.3,2.1-2.5,2.8-3.5c6.1-8.4,11.5-9.2,11.5-9.2c-6.2-4.2-12.1,5.3-12.1,5.3s3.8-8.7-2.5-16.6c-2.2-3.1-5.1-3.7-7.6-3.5
									c-2.5,0.1-4.5,1-4.5,1s0.8,0,2,0.6c1.2,0.6,2.8,1.9,4.5,4.5c1.8,2.5,0.9,4.6,0,7c-0.9,2.3-1.8,4.9,0.2,8.2
									c1.4,2.3,3.3,2.2,4.1,1.1c1.5-2.1,0.4-3.1,0.4-3.1c1.4,0.2,1.4,1.2,1.1,2.3c-0.4,1-1,2-1,2c-2.9,4.2-6.7,6.8-11.1,7.5
									c-3.9-0.2-7.7-0.6-11.6-1c-1.9-0.2-3.9-0.5-5.8-0.7l-2.9-0.4c-0.9-0.2-2-0.3-2.8-0.5c-0.2,0.4-0.4,0.8-0.6,1.2l-0.4,1.7
									c0,0.4,0.1,0.9,0.2,1.3c6,1,11.9,1.8,17.8,2.3c1,0.2,2,0.2,3,0.2c3.7,0.3,7.4,0.4,11.2,0.5c3.7,0.1,7.4,0,11.1,0
									c0.3,0.2,0.6,0.4,0.9,0.7c6.7,6.1,2.7,9,5.9,14.2c1.7,2.7,4.1,2.2,4.1,2.2C318.9,123.5,326.6,117.5,322.2,113.4z"/>
								<path class="st2" d="M263.6,122.6c1,0.2,1.8,0.4,2.4,0.5l1.5,0.2l3,0.5c2,0.3,4,0.6,6,0.8c4,0.5,8.1,0.8,12.1,1.1
									c4,0.3,8.1,0.4,12.1,0.5l11.4,0l44.5-0.1l29.6-36l-44.5,0.1l-22.2,0l-11.1,0l-5.5,0c-1.7,0-3.4,0-5.1-0.1
									c-4.7,5.9-9.8,11.6-15.4,17c-2.8,2.7-5.6,5.4-8.6,8c-1.5,1.3-3,2.6-4.5,3.9l-2.3,1.9C266.2,121.6,265.2,122.2,263.6,122.6z"
									/>
								<path class="st2" d="M236.9,55.6c5.8,2.1,11.2,5.1,16.3,8.7c5.1,3.5,10,7.6,14.4,12.1c2.2,2.2,4.3,4.6,6.3,7
									c1,1.2,2,2.5,2.9,3.7l1.4,1.9c0.3,0.4,0.3,0.4,0.1,0.1c-0.3-0.3-0.8-0.9-1.8-1.7c-0.5-0.4-1.2-0.8-1.7-1.1
									c-0.6-0.3-1.1-0.5-1.5-0.7c-0.4-0.2-0.7-0.2-0.9-0.3l-0.3-0.1l0.9,0.2c2.1,0.3,4.2,0.6,6.3,0.9l-6.7,52.3
									c-2.7-0.3-5.4-0.7-8-1.2c-0.6-0.1-1.4-0.2-3.1-0.6c-1.6-0.3-3.9-0.9-6.8-2c-1.5-0.6-3.1-1.3-4.8-2.2c-1.7-0.9-3.5-2.1-5-3.2
									c-3.1-2.3-5.2-4.6-6.7-6.3c-0.7-0.9-1.3-1.6-1.8-2.2l-1-1.4l-0.4-0.6c-0.3-0.4-0.5-0.7-0.8-1.1c-0.6-0.7-1.1-1.4-1.7-2
									c-1.2-1.3-2.6-2.5-4-3.5c-1.4-1-2.9-2-4.6-2.7L236.9,55.6z"/>
							</g>
							<g>
								<g>
									<path class="st1" d="M276.2,98.8c-1.7,1.2-3.4,0.2-4.1-1.4c-0.6-1.4,0.6-3.1,1.4-3.8c0.7-0.6,1.6-0.4,1.8,0.1
										c0.2,0.6-0.1,1.4-0.6,1.8c-0.5,0.4-1.1-0.2-1,0.2c0.1,0.3,0.7,0.5,1.1,0.2c0.8-0.6,1-1.5,0.7-2.3c-0.3-0.8-1.1-1.1-2.1-0.3
										c-1.1,0.8-1.3,1.9-2,3.3c-0.3,0.7-0.8,1.5-1.4,2.4c-0.7,0.9-1.5,1.9-2.8,2.7c1,0.4,2.3,0.5,3.7,0.8l0.2,1.3l-0.3,1.8
										l-0.6,1.2c-0.7-0.1-1.4-0.2-2.2-0.4c-0.8-0.1-1.6-0.3-2.5-0.7c-0.9-0.3-1.8-0.9-2.5-1.5c-0.7-0.6-1.3-1.3-1.8-2l-1.3-1.8
										c-0.4-0.6-0.8-1.1-1.2-1.7c-0.8-1.1-1.7-2.2-2.6-3.2c0.2,4-0.9,7.4-1.8,9.5c-0.2,0.6-0.5,1.1-0.6,1.7
										c-0.1,0.6-0.1,1.3-0.1,2.1c0.2,1.5,0.8,3.4,2.3,5.4c0.7,1,1.7,1.9,2.6,2.7c0.9,0.8,1.8,1.4,2.6,2c1.6,1.1,2.8,1.7,3.8,2.2
										c0.9,0.5,1.5,0.8,1.9,1.1c0.4,0.3,0.8,0.5,1.1,0.6c0.6,0.3,1,0.4,1,0.4c-0.9,0.4-1.8,0.6-2.6,0.6c-0.9,0-2.3-0.3-4.2-0.9
										c-1.9-0.7-4.3-1.9-6.6-3.7c-1.1-0.9-2.1-1.9-2.8-2.8c-0.7-0.9-1.2-1.7-1.6-2.5c-0.8-1.5-1-2.7-1.1-3.6c0-0.4,0-0.8,0.1-1.1
										c0.1-0.3,0.2-0.5,0.3-0.7c0.4-0.9,0.7-1.5,0.7-1.5s-1.3,1.9-3.9,3.8c-2.5,2-6.2,3.9-10.1,5.3c-3.1,1.1-4.2,0.6-4.9-0.4
										c-0.6-1-0.7-2.5-0.7-2.5s0.2,0.3,1,0.2c0.8,0,2.1-0.4,4.5-1.5c2.4-1,3.7-2.8,4.9-5c1.3-2.1,2.5-4.6,5.9-5.6
										c2.4-0.7,3.4,0.6,3,1.8c-0.4,1.2-1,1.7-1.4,2c-0.4,0.3-0.7,0.3-0.7,0.3c0.8,0.7,1.6,0.1,2.3-0.8c0.6-0.9,1-2,1-2
										c1.7-4.6,1.2-9.4-1.3-13c-2.7-2.6-5.6-5-8.7-7.1c-3.1-2.2-6.3-4.2-9.7-5.6l0-1.5l0.4-1.8l0.7-1.1c2.8,1.2,5.5,2.7,8.1,4.3
										c2.6,1.7,5.1,3.5,7.4,5.4c0.9,0.6,1.7,1.3,2.3,2c2.9,2.5,5.6,5.3,8.1,8.2c1.3,1.5,2.4,3,3.6,4.5l1.7,2.3
										c0.5,0.7,1,1.3,1.5,1.7c0.3,0,0.6-0.1,0.8-0.3c0.8-0.4,1.3-1,1.7-1.6c0.5-0.6,0.8-1.1,1.2-1.7c0.6-1.1,1.1-2.2,1.3-3.2
										c0.6-2.1,0.7-4.1,2.6-6.4c1.9-2.4,4-1.6,4-1.6c-1.5,1.1-0.7,3.4-0.1,5.9C278.1,94.5,278.6,97.1,276.2,98.8z"/>
								</g>
							</g>
						</g>
					</g>
				</g>
			</g>
		</g>
	</g>
</g>
<g id="Layer_2">
	<text transform="matrix(1 0 0 1 104.7534 232.8843)" class="st1 st3 st4">GARDENIA</text>
</g>
</svg>
